# This file is brought to you by Roblox Corporation
# Generated by Roblox Studio

mtllib Arch.mtl

g Union1

v -56 0 64 
v -57.5008 0 64 
v -57.5008 0 62 
v -56 0 62 
v -56 12 62 
v -56 12 64 
v -56 0 62 
v -56 0 64 
v -64.4992 0 64 
v -66 0 62 
v -64.4992 0 62 
v -66 0 64 
v -66 0 62 
v -66 0 64 
v -66 12 62 
v -66 12 64 
v -66 12 64 
v -66 0 64 
v -64.4992 0 64 
v -66 12 62 
v -66 12 64 
v -56 12 62 
v -56 12 64 
v -64.5 7.49999 64 
v -64.5 7.49999 62 
v -64.3204 8.60678 64 
v -64.4991 7.49474 62 
v -64.4991 7.49474 64 
v -57.5008 7.49483 64 
v -57.5 7.5 64 
v -57.5008 7.49483 62 
v -57.5 7.5 62 
v -57.6796 8.60682 62 
v -57.6796 8.60682 64 
v -58.0878 9.44145 62 
v -58.0878 9.44145 64 
v -58.5251 9.97487 62 
v -58.5251 9.97487 64 
v -58.5251 9.97487 62 
v -58.5251 9.97487 64 
v -59.0586 10.4122 62 
v -59.0586 10.4122 64 
v -59.8932 10.8204 62 
v -59.8932 10.8204 64 
v -61 11 62 
v -61 11 64 
v -62.1068 10.8204 62 
v -62.1068 10.8204 64 
v -62.9414 10.4122 62 
v -62.9414 10.4122 64 
v -63.4749 9.97488 62 
v -63.4749 9.97488 64 
v -63.9122 9.44146 64 
v -63.9122 9.44146 62 
v -63.4749 9.97488 64 
v -63.4749 9.97488 62 
v -64.3204 8.60678 62 
v -57.6796 8.60682 64 
v -57.5 7.5 64 
v -56 12 64 
v -57.6796 8.60682 62 
v -56 12 62 
v -57.5 7.5 62 
v -57.5008 7.49483 62 
v -56 0 62 
v -57.5008 3.99599 62 
v -57.5008 7.49483 64 
v -57.5008 7.49483 64 
v -57.5008 7.49483 62 
v -57.5008 3.99599 62 
v -58.0878 9.44145 62 
v -58.0878 9.44145 64 
v -64.5 7.49999 64 
v -64.4991 7.49474 64 
v -64.4992 3.99599 64 
v -64.5 7.49999 62 
v -64.4991 7.49474 62 
v -66 0 62 
v -64.4991 7.49474 64 
v -64.4992 3.99599 64 
v -64.4991 7.49474 62 
v -58.5251 9.97487 62 
v -58.5251 9.97487 64 
v -64.3204 8.60678 64 
v -66 12 62 
v -64.3204 8.60678 62 
v -59.0586 10.4122 62 
v -59.0586 10.4122 64 
v -63.9122 9.44146 64 
v -63.9122 9.44146 62 
v -59.8932 10.8204 62 
v -61 11 62 
v -59.8932 10.8204 64 
v -63.4749 9.97488 64 
v -63.4749 9.97488 62 
v -61 11 64 
v -62.9414 10.4122 64 
v -62.1068 10.8204 64 
v -62.9414 10.4122 62 
v -62.1068 10.8204 62 
v -64.4992 0 64 
v -64.4992 0 62 
v -57.5008 0 64 
v -57.5008 0 62 
v -64.4992 0 62 
v -57.5008 0 64 
v -56 0 64 
v -57.5008 0 62 

vn 0 -1 0 
vn 0 -1 0 
vn 0 -1 0 
vn 0 -1 0 
vn 1 0 0 
vn 1 0 0 
vn 1 0 0 
vn 1 0 0 
vn 0 -1 0 
vn 0 -1 0 
vn 0 -1 0 
vn 0 -1 0 
vn -1 0 0 
vn -1 0 0 
vn -1 0 0 
vn -1 0 0 
vn 0 0 1 
vn 0 0 1 
vn 0 0 1 
vn 0 1 0 
vn 0 1 0 
vn 0 1 0 
vn 0 1 0 
vn 1 0 0 
vn 1 0 0 
vn 0.944882 -0.314961 0 
vn 1 0 0 
vn 1 0 0 
vn -1 0 0 
vn -1 0 0 
vn -1 0 0 
vn -1 0 0 
vn -0.944882 -0.314961 0 
vn -0.944882 -0.314961 0 
vn -0.834646 -0.551181 0 
vn -0.834646 -0.551181 0 
vn -0.708661 -0.708661 0 
vn -0.708661 -0.708661 0 
vn -0.708661 -0.708661 0 
vn -0.708661 -0.708661 0 
vn -0.551181 -0.834646 0 
vn -0.551181 -0.834646 0 
vn -0.314961 -0.944882 0 
vn -0.314961 -0.944882 0 
vn 0 -1 0 
vn 0 -1 0 
vn 0.314961 -0.944882 0 
vn 0.314961 -0.944882 0 
vn 0.551181 -0.834646 0 
vn 0.551181 -0.834646 0 
vn 0.708661 -0.708661 0 
vn 0.708661 -0.708661 0 
vn 0.834646 -0.551181 0 
vn 0.834646 -0.551181 0 
vn 0.708661 -0.708661 0 
vn 0.708661 -0.708661 0 
vn 0.944882 -0.314961 0 
vn 0 0 1 
vn 0 0 1 
vn 0 0 1 
vn 0 0 -1 
vn 0 0 -1 
vn 0 0 -1 
vn 0 0 -1 
vn 0 0 -1 
vn 0 0 -1 
vn 0 0 1 
vn -1 0 0 
vn -1 0 0 
vn -1 0 0 
vn 0 0 -1 
vn 0 0 1 
vn 0 0 1 
vn 0 0 1 
vn 0 0 1 
vn 0 0 -1 
vn 0 0 -1 
vn 0 0 -1 
vn 1 0 0 
vn 1 0 0 
vn 1 0 0 
vn 0 0 -1 
vn 0 0 1 
vn 0 0 1 
vn 0 0 -1 
vn 0 0 -1 
vn 0 0 -1 
vn 0 0 1 
vn 0 0 1 
vn 0 0 -1 
vn 0 0 -1 
vn 0 0 -1 
vn 0 0 1 
vn 0 0 1 
vn 0 0 -1 
vn 0 0 1 
vn 0 0 1 
vn 0 0 1 
vn 0 0 -1 
vn 0 0 -1 
vn 1 0 0 
vn 1 0 0 
vn -1 0 0 
vn -1 0 0 
vn 0 0 -1 
vn 0 0 1 
vn 0 0 1 
vn 0 0 -1 

vt 56.625 -20.875 
vt 56.4374 -20.875 
vt 56.4374 -21.125 
vt 56.625 -21.125 
vt 56.125 -20.25 
vt 55.875 -20.25 
vt 56.125 -21.75 
vt 55.875 -21.75 
vt 55.5626 -20.875 
vt 55.375 -21.125 
vt 55.5626 -21.125 
vt 55.375 -20.875 
vt 55.875 -21.75 
vt 56.125 -21.75 
vt 55.875 -20.25 
vt 56.125 -20.25 
vt 55.375 -20.25 
vt 55.375 -21.75 
vt 55.5626 -21.75 
vt 56.625 -21.125 
vt 56.625 -20.875 
vt 55.375 -21.125 
vt 55.375 -20.875 
vt 55.875 -20.8125 
vt 56.125 -20.8125 
vt 55.875 -20.6742 
vt 56.125 -20.8132 
vt 55.875 -20.8132 
vt 56.125 -20.8131 
vt 56.125 -20.8125 
vt 55.875 -20.8131 
vt 55.875 -20.8125 
vt 55.875 -20.6741 
vt 56.125 -20.6741 
vt 55.875 -20.5698 
vt 56.125 -20.5698 
vt 55.875 -20.5031 
vt 56.125 -20.5031 
vt 56.3094 -21.125 
vt 56.3094 -20.875 
vt 56.2427 -21.125 
vt 56.2427 -20.875 
vt 56.1384 -21.125 
vt 56.1384 -20.875 
vt 56 -21.125 
vt 56 -20.875 
vt 55.8616 -21.125 
vt 55.8616 -20.875 
vt 55.7573 -21.125 
vt 55.7573 -20.875 
vt 55.6906 -21.125 
vt 55.6906 -20.875 
vt 55.875 -20.5698 
vt 56.125 -20.5698 
vt 55.875 -20.5031 
vt 56.125 -20.5031 
vt 56.125 -20.6742 
vt 56.415 -20.6741 
vt 56.4375 -20.8125 
vt 56.625 -20.25 
vt 55.585 -20.6741 
vt 55.375 -20.25 
vt 55.5625 -20.8125 
vt 55.5626 -20.8131 
vt 55.375 -21.75 
vt 55.5626 -21.2505 
vt 56.4374 -20.8131 
vt 56.125 -20.8131 
vt 55.875 -20.8131 
vt 55.875 -21.2505 
vt 55.636 -20.5698 
vt 56.364 -20.5698 
vt 55.5625 -20.8125 
vt 55.5626 -20.8132 
vt 55.5626 -21.2505 
vt 56.4375 -20.8125 
vt 56.4374 -20.8132 
vt 56.625 -21.75 
vt 55.875 -20.8132 
vt 55.875 -21.2505 
vt 56.125 -20.8132 
vt 55.6906 -20.5031 
vt 56.3094 -20.5031 
vt 55.5849 -20.6742 
vt 56.625 -20.25 
vt 56.4151 -20.6742 
vt 55.7573 -20.4485 
vt 56.2427 -20.4485 
vt 55.636 -20.5698 
vt 56.364 -20.5698 
vt 55.8616 -20.3975 
vt 56 -20.375 
vt 56.1384 -20.3975 
vt 55.6906 -20.5031 
vt 56.3094 -20.5031 
vt 56 -20.375 
vt 55.7573 -20.4485 
vt 55.8616 -20.3975 
vt 56.2427 -20.4485 
vt 56.1384 -20.3975 
vt 55.875 -21.75 
vt 56.125 -21.75 
vt 56.125 -21.75 
vt 55.875 -21.75 
vt 56.4374 -21.75 
vt 56.4374 -21.75 
vt 56.625 -21.75 
vt 55.5626 -21.75 

usemtl Union1Mtl

f 1/1/1 2/2/2 3/3/3 
f 1/1/1 3/3/3 4/4/4 
f 5/5/5 6/6/6 7/7/7 
f 6/6/6 8/8/8 7/7/7 
f 9/9/9 10/10/10 11/11/11 
f 9/9/9 12/12/12 10/10/10 
f 13/13/13 14/14/14 15/15/15 
f 14/14/14 16/16/16 15/15/15 
f 17/17/17 18/18/18 19/19/19 
f 20/20/20 21/21/21 22/22/22 
f 21/21/21 23/23/23 22/22/22 
f 24/24/24 25/25/25 26/26/26 
f 27/27/27 25/25/25 28/28/28 
f 25/25/25 24/24/24 28/28/28 
f 29/29/29 30/30/30 31/31/31 
f 30/30/30 32/32/32 31/31/31 
f 32/32/32 30/30/30 33/33/33 
f 30/30/30 34/34/34 33/33/33 
f 33/33/33 34/34/34 35/35/35 
f 34/34/34 36/36/36 35/35/35 
f 35/35/35 36/36/36 37/37/37 
f 36/36/36 38/38/38 37/37/37 
f 39/39/39 40/40/40 41/41/41 
f 40/40/40 42/42/42 41/41/41 
f 41/41/41 42/42/42 43/43/43 
f 42/42/42 44/44/44 43/43/43 
f 43/43/43 44/44/44 45/45/45 
f 44/44/44 46/46/46 45/45/45 
f 45/45/45 46/46/46 47/47/47 
f 46/46/46 48/48/48 47/47/47 
f 47/47/47 48/48/48 49/49/49 
f 48/48/48 50/50/50 49/49/49 
f 49/49/49 50/50/50 51/51/51 
f 50/50/50 52/52/52 51/51/51 
f 53/53/53 54/54/54 55/55/55 
f 54/54/54 56/56/56 55/55/55 
f 26/26/26 57/57/57 53/53/53 
f 57/57/57 54/54/54 53/53/53 
f 25/25/25 57/57/57 26/26/26 
f 58/58/58 59/59/59 60/60/60 
f 61/61/61 62/62/62 63/63/63 
f 63/63/63 62/62/62 64/64/64 
f 62/62/62 65/65/65 64/64/64 
f 65/65/65 66/66/66 64/64/64 
f 59/59/59 67/67/67 60/60/60 
f 68/68/68 69/69/69 70/70/70 
f 71/71/71 62/62/62 61/61/61 
f 58/58/58 60/60/60 72/72/72 
f 73/73/73 17/17/17 74/74/74 
f 17/17/17 75/75/75 74/74/74 
f 76/76/76 77/77/77 78/78/78 
f 79/79/79 80/80/80 81/81/81 
f 82/82/82 62/62/62 71/71/71 
f 72/72/72 60/60/60 83/83/83 
f 17/17/17 73/73/73 84/84/84 
f 85/85/85 86/86/86 78/78/78 
f 86/86/86 76/76/76 78/78/78 
f 87/87/87 62/62/62 82/82/82 
f 83/83/83 60/60/60 88/88/88 
f 89/89/89 17/17/17 84/84/84 
f 86/86/86 85/85/85 90/90/90 
f 91/91/91 62/62/62 87/87/87 
f 92/92/92 62/62/62 91/91/91 
f 88/88/88 60/60/60 93/93/93 
f 94/94/94 17/17/17 89/89/89 
f 90/90/90 85/85/85 95/95/95 
f 93/93/93 60/60/60 96/96/96 
f 97/97/97 17/17/17 94/94/94 
f 98/98/98 17/17/17 97/97/97 
f 95/95/95 85/85/85 99/99/99 
f 100/100/100 85/85/85 92/92/92 
f 96/96/96 60/60/60 98/98/98 
f 99/99/99 85/85/85 100/100/100 
f 98/98/98 60/60/60 17/17/17 
f 92/92/92 85/85/85 62/62/62 
f 80/80/80 101/101/101 81/81/81 
f 101/101/101 102/102/102 81/81/81 
f 68/68/68 70/70/70 103/103/103 
f 70/70/70 104/104/104 103/103/103 
f 77/77/77 105/105/105 78/78/78 
f 17/17/17 19/19/19 75/75/75 
f 67/67/67 106/106/106 60/60/60 
f 106/106/106 107/107/107 60/60/60 
f 65/65/65 108/108/108 66/66/66 

