# This file is brought to you by Roblox Corporation
# Generated by Roblox Studio

mtllib Window #1.mtl

g Part1

v -106.216 9.52873 72.0895 
v -106.216 9.52873 72.8137 
v -105.808 9.52873 72.0895 
v -105.808 9.52873 72.8137 
v -106.216 4.56342 72.8137 
v -106.216 9.52873 72.8137 
v -106.216 4.56342 72.0895 
v -106.216 9.52873 72.0895 
v -106.216 9.52873 72.8137 
v -106.216 4.56342 72.8137 
v -105.808 9.52873 72.8137 
v -105.808 4.56342 72.8137 
v -106.216 4.56342 72.8137 
v -106.216 4.56342 72.0895 
v -105.808 4.56342 72.8137 
v -105.808 4.56342 72.0895 
v -105.808 4.56342 72.0895 
v -105.808 9.52873 72.0895 
v -105.808 4.56342 72.8137 
v -105.808 9.52873 72.8137 
v -106.216 4.56342 72.0895 
v -106.216 9.52873 72.0895 
v -105.808 4.56342 72.0895 
v -105.808 9.52873 72.0895 

vn 0 1 0 
vn 0 1 0 
vn 0 1 0 
vn 0 1 0 
vn -1 0 0 
vn -1 0 0 
vn -1 0 0 
vn -1 0 0 
vn 0 0 1 
vn 0 0 1 
vn 0 0 1 
vn 0 0 1 
vn 0 -1 0 
vn 0 -1 0 
vn 0 -1 0 
vn 0 -1 0 
vn 1 0 0 
vn 1 0 0 
vn 1 0 0 
vn 1 0 0 
vn 0 0 -1 
vn 0 0 -1 
vn 0 0 -1 
vn 0 0 -1 

vt 3.34053 0.75 
vt 3.25 0.75 
vt 3.34053 0.698917 
vt 3.25 0.698917 
vt 3.87066 0.75 
vt 3.25 0.75 
vt 3.87066 0.659466 
vt 3.25 0.659466 
vt 3.87066 0.75 
vt 3.25 0.75 
vt 3.87066 0.698917 
vt 3.25 0.698917 
vt 3.34053 0.75 
vt 3.25 0.75 
vt 3.34053 0.698917 
vt 3.25 0.698917 
vt 3.87066 0.75 
vt 3.25 0.75 
vt 3.87066 0.659466 
vt 3.25 0.659466 
vt 3.87066 0.75 
vt 3.25 0.75 
vt 3.87066 0.698917 
vt 3.25 0.698917 

usemtl Part1Mtl

f 1/1/1 2/2/2 3/3/3 
f 3/3/3 2/2/2 4/4/4 
f 5/5/5 6/6/6 7/7/7 
f 7/7/7 6/6/6 8/8/8 
f 9/9/9 10/10/10 11/11/11 
f 11/11/11 10/10/10 12/12/12 
f 13/13/13 14/14/14 15/15/15 
f 15/15/15 14/14/14 16/16/16 
f 17/17/17 18/18/18 19/19/19 
f 19/19/19 18/18/18 20/20/20 
f 21/21/21 22/22/22 23/23/23 
f 23/23/23 22/22/22 24/24/24 

g Part2

v -102.529 7.25041 72.0895 
v -102.529 7.25041 72.8137 
v -102.529 6.84174 72.0895 
v -102.529 6.84174 72.8137 
v -109.495 7.25041 72.8137 
v -102.529 7.25041 72.8137 
v -109.495 7.25041 72.0895 
v -102.529 7.25041 72.0895 
v -102.529 7.25041 72.8137 
v -109.495 7.25041 72.8137 
v -102.529 6.84174 72.8137 
v -109.495 6.84174 72.8137 
v -109.495 7.25041 72.8137 
v -109.495 7.25041 72.0895 
v -109.495 6.84174 72.8137 
v -109.495 6.84174 72.0895 
v -109.495 6.84174 72.0895 
v -102.529 6.84174 72.0895 
v -109.495 6.84174 72.8137 
v -102.529 6.84174 72.8137 
v -109.495 7.25041 72.0895 
v -102.529 7.25041 72.0895 
v -109.495 6.84174 72.0895 
v -102.529 6.84174 72.0895 

vn 1 0 0 
vn 1 0 0 
vn 1 0 0 
vn 1 0 0 
vn 0 1 0 
vn 0 1 0 
vn 0 1 0 
vn 0 1 0 
vn 0 0 1 
vn 0 0 1 
vn 0 0 1 
vn 0 0 1 
vn -1 0 0 
vn -1 0 0 
vn -1 0 0 
vn -1 0 0 
vn 0 -1 0 
vn 0 -1 0 
vn 0 -1 0 
vn 0 -1 0 
vn 0 0 -1 
vn 0 0 -1 
vn 0 0 -1 
vn 0 0 -1 

vt 0.590534 -0.75 
vt 0.5 -0.75 
vt 0.590534 -0.801083 
vt 0.5 -0.801083 
vt 1.37066 -0.75 
vt 0.5 -0.75 
vt 1.37066 -0.840534 
vt 0.5 -0.840534 
vt 1.37066 -0.75 
vt 0.5 -0.75 
vt 1.37066 -0.801083 
vt 0.5 -0.801083 
vt 0.590534 -0.75 
vt 0.5 -0.75 
vt 0.590534 -0.801083 
vt 0.5 -0.801083 
vt 1.37066 -0.75 
vt 0.5 -0.75 
vt 1.37066 -0.840534 
vt 0.5 -0.840534 
vt 1.37066 -0.75 
vt 0.5 -0.75 
vt 1.37066 -0.801083 
vt 0.5 -0.801083 

usemtl Part1Mtl

f 25/25/25 26/26/26 27/27/27 
f 27/27/27 26/26/26 28/28/28 
f 29/29/29 30/30/30 31/31/31 
f 31/31/31 30/30/30 32/32/32 
f 33/33/33 34/34/34 35/35/35 
f 35/35/35 34/34/34 36/36/36 
f 37/37/37 38/38/38 39/39/39 
f 39/39/39 38/38/38 40/40/40 
f 41/41/41 42/42/42 43/43/43 
f 43/43/43 42/42/42 44/44/44 
f 45/45/45 46/46/46 47/47/47 
f 47/47/47 46/46/46 48/48/48 

g Union1

v -101 15 72 
v -101 15 73 
v -101 9.53674e-07 72 
v -101 9.53674e-07 73 
v -101 9.53674e-07 72 
v -101 9.53674e-07 73 
v -111 9.53674e-07 72 
v -111 9.53674e-07 73 
v -108.004 15 72 
v -111 15 73 
v -101 15 72 
v -111 15 72 
v -101 15 73 
v -111 9.53674e-07 72 
v -111 9.53674e-07 73 
v -111 15 72 
v -111 15 73 
v -104.103 6.36755 72 
v -104.103 6.36755 73 
v -104 7.00001 72 
v -104 7.00001 73 
v -104.336 5.89062 72 
v -104.336 5.89062 73 
v -104.586 5.5858 72 
v -104.586 5.5858 73 
v -104.891 5.3359 72 
v -104.891 5.3359 73 
v -104.586 5.5858 72 
v -104.586 5.5858 73 
v -105.368 5.10264 72 
v -105.368 5.10264 73 
v -106 5.00001 72 
v -106 5.00001 73 
v -106.632 5.10264 72 
v -106.632 5.10264 73 
v -107.109 5.3359 72 
v -107.109 5.3359 73 
v -107.414 5.58579 72 
v -107.414 5.58579 73 
v -107.414 5.58579 73 
v -107.414 5.58579 72 
v -107.664 5.89063 73 
v -107.664 5.89063 72 
v -107.897 6.36756 73 
v -107.897 6.36756 72 
v -108 7.00001 73 
v -108 7.00001 72 
v -107.897 7.63244 73 
v -107.897 7.63244 72 
v -107.664 8.10941 73 
v -107.664 8.10941 72 
v -107.414 8.41423 73 
v -107.414 8.41423 72 
v -107.109 8.66411 72 
v -107.109 8.66411 73 
v -107.414 8.41423 72 
v -107.414 8.41423 73 
v -106.632 8.89738 72 
v -106.632 8.89738 73 
v -106 9.00001 72 
v -106 9.00001 73 
v -105.368 8.89737 72 
v -105.368 8.89737 73 
v -104.891 8.6641 72 
v -104.891 8.6641 73 
v -104.586 8.41423 72 
v -104.586 8.41423 73 
v -104.336 8.10941 72 
v -104.336 8.10941 73 
v -104.586 8.41423 72 
v -104.586 8.41423 73 
v -104.103 7.63244 72 
v -104.103 7.63244 73 
v -104.103 7.63244 72 
v -101 15 72 
v -104 7.00001 72 
v -106 5.00001 73 
v -106.632 5.10264 73 
v -111 9.53674e-07 73 
v -107.109 5.3359 73 
v -107.414 5.58579 73 
v -107.664 5.89063 73 
v -107.897 6.36756 73 
v -104.336 8.10941 72 
v -104.103 6.36755 72 
v -101 9.53674e-07 72 
v -108.004 15 72 
v -104.586 8.41423 72 
v -104.336 5.89062 72 
v -104.891 8.6641 72 
v -105.368 8.89737 72 
v -104.586 5.5858 72 
v -104.891 5.3359 72 
v -105.368 5.10264 72 
v -106.632 8.89738 72 
v -106 9.00001 72 
v -106 5.00001 72 
v -111 9.53674e-07 72 
v -107.109 8.66411 72 
v -106.632 5.10264 72 
v -108.004 5.32522 72 
v -107.414 8.41423 72 
v -107.109 5.3359 72 
v -107.664 8.10941 72 
v -107.414 5.58579 72 
v -107.897 7.63244 72 
v -107.664 5.89063 72 
v -107.897 6.36756 72 
v -108 7.00001 72 
v -101 15 73 
v -104.103 7.63244 73 
v -101 9.53674e-07 73 
v -104 7.00001 73 
v -104.103 6.36755 73 
v -106 9.00001 73 
v -106.632 8.89738 73 
v -105.368 8.89737 73 
v -104.891 8.6641 73 
v -104.586 8.41423 73 
v -104.336 8.10941 73 
v -111 15 73 
v -104.336 5.89062 73 
v -104.586 5.5858 73 
v -104.891 5.3359 73 
v -105.368 5.10264 73 
v -111 15 72 
v -108 7.00001 73 
v -107.897 7.63244 73 
v -107.664 8.10941 73 
v -107.414 8.41423 73 
v -107.109 8.66411 73 

vn 1 0 0 
vn 1 0 0 
vn 1 0 0 
vn 1 0 0 
vn 0 -1 0 
vn 0 -1 0 
vn 0 -1 0 
vn 0 -1 0 
vn 0 1 0 
vn 0 1 0 
vn 0 1 0 
vn 0 1 0 
vn 0 1 0 
vn -1 0 0 
vn -1 0 0 
vn -1 0 0 
vn -1 0 0 
vn -0.944882 0.314961 0 
vn -0.944882 0.314961 0 
vn -1 0 0 
vn -1 0 0 
vn -0.834646 0.551181 0 
vn -0.834646 0.551181 0 
vn -0.708661 0.708661 0 
vn -0.708661 0.708661 0 
vn -0.551181 0.834646 0 
vn -0.551181 0.834646 0 
vn -0.708661 0.708661 0 
vn -0.708661 0.708661 0 
vn -0.314961 0.944882 0 
vn -0.314961 0.944882 0 
vn 0 1 0 
vn 0 1 0 
vn 0.314961 0.944882 0 
vn 0.314961 0.944882 0 
vn 0.551181 0.834646 0 
vn 0.551181 0.834646 0 
vn 0.708661 0.708661 0 
vn 0.708661 0.708661 0 
vn 0.708661 0.708661 0 
vn 0.708661 0.708661 0 
vn 0.834646 0.551181 0 
vn 0.834646 0.551181 0 
vn 0.944882 0.314961 0 
vn 0.944882 0.314961 0 
vn 1 0 0 
vn 1 0 0 
vn 0.944882 -0.314961 0 
vn 0.944882 -0.314961 0 
vn 0.834646 -0.551181 0 
vn 0.834646 -0.551181 0 
vn 0.708661 -0.708661 0 
vn 0.708661 -0.708661 0 
vn 0.551181 -0.834646 0 
vn 0.551181 -0.834646 0 
vn 0.708661 -0.708661 0 
vn 0.708661 -0.708661 0 
vn 0.314961 -0.944882 0 
vn 0.314961 -0.944882 0 
vn 0 -1 0 
vn 0 -1 0 
vn -0.314961 -0.944882 0 
vn -0.314961 -0.944882 0 
vn -0.551181 -0.834646 0 
vn -0.551181 -0.834646 0 
vn -0.708661 -0.708661 0 
vn -0.708661 -0.708661 0 
vn -0.834646 -0.551181 0 
vn -0.834646 -0.551181 0 
vn -0.708661 -0.708661 0 
vn -0.708661 -0.708661 0 
vn -0.944882 -0.314961 0 
vn -0.944882 -0.314961 0 
vn 0 0 -1 
vn 0 0 -1 
vn 0 0 -1 
vn 0 0 1 
vn 0 0 1 
vn 0 0 1 
vn 0 0 1 
vn 0 0 1 
vn 0 0 1 
vn 0 0 1 
vn 0 0 -1 
vn 0 0 -1 
vn 0 0 -1 
vn 0 0 -1 
vn 0 0 -1 
vn 0 0 -1 
vn 0 0 -1 
vn 0 0 -1 
vn 0 0 -1 
vn 0 0 -1 
vn 0 0 -1 
vn 0 0 -1 
vn 0 0 -1 
vn 0 0 -1 
vn 0 0 -1 
vn 0 0 -1 
vn 0 0 -1 
vn 0 0 -1 
vn 0 0 -1 
vn 0 0 -1 
vn 0 0 -1 
vn 0 0 -1 
vn 0 0 -1 
vn 0 0 -1 
vn 0 0 -1 
vn 0 0 -1 
vn 0 0 1 
vn 0 0 1 
vn 0 0 1 
vn 0 0 1 
vn 0 0 1 
vn 0 0 1 
vn 0 0 1 
vn 0 0 1 
vn 0 0 1 
vn 0 0 1 
vn 0 0 1 
vn 0 0 1 
vn 0 0 1 
vn 0 0 1 
vn 0 0 1 
vn 0 0 1 
vn 0 0 -1 
vn 0 0 1 
vn 0 0 1 
vn 0 0 1 
vn 0 0 1 
vn 0 0 1 

vt 12.0625 -40.0625 
vt 11.9375 -40.0625 
vt 12.0625 -41.9375 
vt 11.9375 -41.9375 
vt 12.625 -41.0625 
vt 12.625 -40.9375 
vt 11.375 -41.0625 
vt 11.375 -40.9375 
vt 12.2505 -41.0625 
vt 12.625 -40.9375 
vt 11.375 -41.0625 
vt 12.625 -41.0625 
vt 11.375 -40.9375 
vt 11.9375 -41.9375 
vt 12.0625 -41.9375 
vt 11.9375 -40.0625 
vt 12.0625 -40.0625 
vt 11.9375 -41.1416 
vt 12.0625 -41.1416 
vt 11.9375 -41.0625 
vt 12.0625 -41.0625 
vt 11.9375 -41.2012 
vt 12.0625 -41.2012 
vt 11.9375 -41.2393 
vt 12.0625 -41.2393 
vt 11.8613 -41.0625 
vt 11.8613 -40.9375 
vt 11.8232 -41.0625 
vt 11.8232 -40.9375 
vt 11.9209 -41.0625 
vt 11.9209 -40.9375 
vt 12 -41.0625 
vt 12 -40.9375 
vt 12.0791 -41.0625 
vt 12.0791 -40.9375 
vt 12.1387 -41.0625 
vt 12.1387 -40.9375 
vt 12.1768 -41.0625 
vt 12.1768 -40.9375 
vt 11.9375 -41.2393 
vt 12.0625 -41.2393 
vt 11.9375 -41.2012 
vt 12.0625 -41.2012 
vt 11.9375 -41.1416 
vt 12.0625 -41.1416 
vt 11.9375 -41.0625 
vt 12.0625 -41.0625 
vt 11.9375 -40.9834 
vt 12.0625 -40.9834 
vt 11.9375 -40.9238 
vt 12.0625 -40.9238 
vt 11.9375 -40.8857 
vt 12.0625 -40.8857 
vt 11.8613 -41.0625 
vt 11.8613 -40.9375 
vt 11.8232 -41.0625 
vt 11.8232 -40.9375 
vt 11.9209 -41.0625 
vt 11.9209 -40.9375 
vt 12 -41.0625 
vt 12 -40.9375 
vt 12.0791 -41.0625 
vt 12.0791 -40.9375 
vt 12.1387 -41.0625 
vt 12.1387 -40.9375 
vt 12.1768 -41.0625 
vt 12.1768 -40.9375 
vt 11.9375 -40.9238 
vt 12.0625 -40.9238 
vt 11.9375 -40.8857 
vt 12.0625 -40.8857 
vt 11.9375 -40.9834 
vt 12.0625 -40.9834 
vt 11.7628 -40.9834 
vt 11.375 -40.0625 
vt 11.75 -41.0625 
vt 12 -41.3125 
vt 11.9209 -41.2997 
vt 11.375 -41.9375 
vt 11.8613 -41.2705 
vt 11.8232 -41.2393 
vt 11.792 -41.2012 
vt 11.7628 -41.1416 
vt 11.792 -40.9238 
vt 11.7628 -41.1416 
vt 11.375 -41.9375 
vt 12.2505 -40.0625 
vt 11.8232 -40.8857 
vt 11.792 -41.2012 
vt 11.8613 -40.8545 
vt 11.9209 -40.8253 
vt 11.8232 -41.2393 
vt 11.8613 -41.2705 
vt 11.9209 -41.2997 
vt 12.0791 -40.8253 
vt 12 -40.8125 
vt 12 -41.3125 
vt 12.625 -41.9375 
vt 12.1387 -40.8545 
vt 12.0791 -41.2997 
vt 12.2505 -41.2718 
vt 12.1768 -40.8857 
vt 12.1387 -41.2705 
vt 12.208 -40.9238 
vt 12.1768 -41.2393 
vt 12.2372 -40.9834 
vt 12.208 -41.2012 
vt 12.2372 -41.1416 
vt 12.25 -41.0625 
vt 12.625 -40.0625 
vt 12.2372 -40.9834 
vt 12.625 -41.9375 
vt 12.25 -41.0625 
vt 12.2372 -41.1416 
vt 12 -40.8125 
vt 11.9209 -40.8253 
vt 12.0791 -40.8253 
vt 12.1387 -40.8545 
vt 12.1768 -40.8857 
vt 12.208 -40.9238 
vt 11.375 -40.0625 
vt 12.208 -41.2012 
vt 12.1768 -41.2393 
vt 12.1387 -41.2705 
vt 12.0791 -41.2997 
vt 12.625 -40.0625 
vt 11.75 -41.0625 
vt 11.7628 -40.9834 
vt 11.792 -40.9238 
vt 11.8232 -40.8857 
vt 11.8613 -40.8545 

usemtl Part1Mtl

f 49/49/49 50/50/50 51/51/51 
f 50/50/50 52/52/52 51/51/51 
f 53/53/53 54/54/54 55/55/55 
f 54/54/54 56/56/56 55/55/55 
f 57/57/57 58/58/58 59/59/59 
f 60/60/60 58/58/58 57/57/57 
f 58/58/58 61/61/61 59/59/59 
f 62/62/62 63/63/63 64/64/64 
f 63/63/63 65/65/65 64/64/64 
f 66/66/66 67/67/67 68/68/68 
f 67/67/67 69/69/69 68/68/68 
f 70/70/70 71/71/71 66/66/66 
f 71/71/71 67/67/67 66/66/66 
f 72/72/72 73/73/73 70/70/70 
f 73/73/73 71/71/71 70/70/70 
f 74/74/74 75/75/75 76/76/76 
f 75/75/75 77/77/77 76/76/76 
f 78/78/78 79/79/79 74/74/74 
f 79/79/79 75/75/75 74/74/74 
f 80/80/80 81/81/81 78/78/78 
f 81/81/81 79/79/79 78/78/78 
f 82/82/82 83/83/83 80/80/80 
f 83/83/83 81/81/81 80/80/80 
f 84/84/84 85/85/85 82/82/82 
f 85/85/85 83/83/83 82/82/82 
f 86/86/86 87/87/87 84/84/84 
f 87/87/87 85/85/85 84/84/84 
f 88/88/88 89/89/89 90/90/90 
f 89/89/89 91/91/91 90/90/90 
f 90/90/90 91/91/91 92/92/92 
f 91/91/91 93/93/93 92/92/92 
f 92/92/92 93/93/93 94/94/94 
f 93/93/93 95/95/95 94/94/94 
f 94/94/94 95/95/95 96/96/96 
f 95/95/95 97/97/97 96/96/96 
f 96/96/96 97/97/97 98/98/98 
f 97/97/97 99/99/99 98/98/98 
f 98/98/98 99/99/99 100/100/100 
f 99/99/99 101/101/101 100/100/100 
f 102/102/102 103/103/103 104/104/104 
f 103/103/103 105/105/105 104/104/104 
f 106/106/106 107/107/107 102/102/102 
f 107/107/107 103/103/103 102/102/102 
f 108/108/108 109/109/109 106/106/106 
f 109/109/109 107/107/107 106/106/106 
f 110/110/110 111/111/111 108/108/108 
f 111/111/111 109/109/109 108/108/108 
f 112/112/112 113/113/113 110/110/110 
f 113/113/113 111/111/111 110/110/110 
f 114/114/114 115/115/115 112/112/112 
f 115/115/115 113/113/113 112/112/112 
f 116/116/116 117/117/117 118/118/118 
f 117/117/117 119/119/119 118/118/118 
f 120/120/120 121/121/121 116/116/116 
f 121/121/121 117/117/117 116/116/116 
f 68/68/68 69/69/69 120/120/120 
f 69/69/69 121/121/121 120/120/120 
f 122/122/122 123/123/123 124/124/124 
f 125/125/125 126/126/126 127/127/127 
f 126/126/126 128/128/128 127/127/127 
f 128/128/128 129/129/129 127/127/127 
f 129/129/129 130/130/130 127/127/127 
f 130/130/130 131/131/131 127/127/127 
f 132/132/132 123/123/123 122/122/122 
f 133/133/133 124/124/124 134/134/134 
f 124/124/124 123/123/123 134/134/134 
f 135/135/135 132/132/132 136/136/136 
f 133/133/133 134/134/134 137/137/137 
f 138/138/138 135/135/135 136/136/136 
f 139/139/139 135/135/135 138/138/138 
f 137/137/137 134/134/134 140/140/140 
f 140/140/140 134/134/134 141/141/141 
f 141/141/141 134/134/134 142/142/142 
f 143/143/143 135/135/135 144/144/144 
f 145/145/145 134/134/134 146/146/146 
f 142/142/142 134/134/134 145/145/145 
f 147/147/147 135/135/135 143/143/143 
f 148/148/148 146/146/146 149/149/149 
f 145/145/145 146/146/146 148/148/148 
f 150/150/150 135/135/135 147/147/147 
f 148/148/148 149/149/149 151/151/151 
f 152/152/152 135/135/135 150/150/150 
f 151/151/151 149/149/149 153/153/153 
f 154/154/154 135/135/135 152/152/152 
f 153/153/153 149/149/149 155/155/155 
f 155/155/155 149/149/149 156/156/156 
f 156/156/156 149/149/149 157/157/157 
f 158/158/158 159/159/159 160/160/160 
f 159/159/159 161/161/161 160/160/160 
f 161/161/161 162/162/162 160/160/160 
f 163/163/163 158/158/158 164/164/164 
f 165/165/165 158/158/158 163/163/163 
f 166/166/166 158/158/158 165/165/165 
f 167/167/167 158/158/158 166/166/166 
f 168/168/168 158/158/158 167/167/167 
f 159/159/159 158/158/158 168/168/168 
f 158/158/158 169/169/169 164/164/164 
f 132/132/132 135/135/135 123/123/123 
f 144/144/144 135/135/135 139/139/139 
f 162/162/162 170/170/170 160/160/160 
f 170/170/170 171/171/171 160/160/160 
f 171/171/171 172/172/172 160/160/160 
f 172/172/172 173/173/173 160/160/160 
f 173/173/173 125/125/125 160/160/160 
f 125/125/125 127/127/127 160/160/160 
f 174/174/174 135/135/135 146/146/146 
f 135/135/135 154/154/154 146/146/146 
f 154/154/154 157/157/157 146/146/146 
f 157/157/157 149/149/149 146/146/146 
f 131/131/131 169/169/169 127/127/127 
f 175/175/175 169/169/169 131/131/131 
f 176/176/176 169/169/169 175/175/175 
f 177/177/177 169/169/169 176/176/176 
f 178/178/178 169/169/169 177/177/177 
f 179/179/179 169/169/169 178/178/178 
f 164/164/164 169/169/169 179/179/179 

